<?xml version="1.0" encoding="utf-8"?>
<!-- Generator: Adobe Illustrator 20.1.0, SVG Export Plug-In . SVG Version: 6.00 Build 0)  -->
<svg version="1.1" id="Ebene_1" xmlns="http://www.w3.org/2000/svg" xmlns:xlink="http://www.w3.org/1999/xlink" x="0px" y="0px"
	 viewBox="0 0 639.6 176" style="enable-background:new 0 0 639.6 176;" xml:space="preserve">
<g>
	<polygon style="fill-rule:evenodd;clip-rule:evenodd;fill:#122D85;" points="11.7,46.9 11.7,35.3 0,35.3 0,46.9 11.7,46.9 	"/>
	<polygon style="fill-rule:evenodd;clip-rule:evenodd;fill:#122D85;" points="11.7,52.4 11.7,48.5 0,48.5 0,52.4 11.7,52.4 	"/>
	<polygon style="fill-rule:evenodd;clip-rule:evenodd;fill:#122D85;" points="11.7,59.5 11.7,55.6 0,55.6 0,59.5 11.7,59.5 	"/>
	<polygon style="fill-rule:evenodd;clip-rule:evenodd;fill:#122D85;" points="11.7,67.5 11.7,63.7 0,63.7 0,67.5 11.7,67.5 	"/>
	<polygon style="fill-rule:evenodd;clip-rule:evenodd;fill:#122D85;" points="11.7,76.6 11.7,72.7 0,72.7 0,76.6 11.7,76.6 	"/>
	<polygon style="fill-rule:evenodd;clip-rule:evenodd;fill:#122D85;" points="11.7,86.6 11.7,82.7 0,82.7 0,86.6 11.7,86.6 	"/>
	<polygon style="fill-rule:evenodd;clip-rule:evenodd;fill:#122D85;" points="11.7,96.9 11.7,93.1 0,93.1 0,96.9 11.7,96.9 	"/>
	<polygon style="fill-rule:evenodd;clip-rule:evenodd;fill:#122D85;" points="11.7,107.6 11.7,103.7 0,103.7 0,107.6 11.7,107.6 	
		"/>
	<polygon style="fill-rule:evenodd;clip-rule:evenodd;fill:#122D85;" points="11.7,118.3 11.7,114.4 0,114.4 0,118.3 11.7,118.3 	
		"/>
	<polygon style="fill-rule:evenodd;clip-rule:evenodd;fill:#122D85;" points="11.7,128.6 11.7,124.7 0,124.7 0,128.6 11.7,128.6 	
		"/>
	<polygon style="fill-rule:evenodd;clip-rule:evenodd;fill:#122D85;" points="11.7,138.6 11.7,134.8 0,134.8 0,138.6 11.7,138.6 	
		"/>
	<polygon style="fill-rule:evenodd;clip-rule:evenodd;fill:#122D85;" points="11.7,147.6 11.7,143.8 0,143.8 0,147.6 11.7,147.6 	
		"/>
	<polygon style="fill-rule:evenodd;clip-rule:evenodd;fill:#122D85;" points="11.7,155.7 11.7,151.8 0,151.8 0,155.7 11.7,155.7 	
		"/>
	<polygon style="fill-rule:evenodd;clip-rule:evenodd;fill:#122D85;" points="11.7,162.8 11.7,159 0,159 0,162.8 11.7,162.8 	"/>
	<polygon style="fill-rule:evenodd;clip-rule:evenodd;fill:#122D85;" points="11.7,176 11.7,164.5 0,164.5 0,176 11.7,176 	"/>
	<polygon style="fill-rule:evenodd;clip-rule:evenodd;fill:#122D85;" points="17.2,46.9 17.2,35.3 13.3,35.3 13.3,46.9 17.2,46.9 	
		"/>
	<polygon style="fill-rule:evenodd;clip-rule:evenodd;fill:#122D85;" points="17.2,52.4 17.2,48.5 13.3,48.5 13.3,52.4 17.2,52.4 	
		"/>
	<polygon style="fill-rule:evenodd;clip-rule:evenodd;fill:#122D85;" points="17.2,59.5 17.2,55.6 13.3,55.6 13.3,59.5 17.2,59.5 	
		"/>
	<polygon style="fill-rule:evenodd;clip-rule:evenodd;fill:#122D85;" points="17.2,67.5 17.2,63.7 13.3,63.7 13.3,67.5 17.2,67.5 	
		"/>
	<polygon style="fill-rule:evenodd;clip-rule:evenodd;fill:#122D85;" points="17.2,76.6 17.2,72.7 13.3,72.7 13.3,76.6 17.2,76.6 	
		"/>
	<polygon style="fill-rule:evenodd;clip-rule:evenodd;fill:#122D85;" points="17.2,86.6 17.2,82.7 13.3,82.7 13.3,86.6 17.2,86.6 	
		"/>
	<polygon style="fill-rule:evenodd;clip-rule:evenodd;fill:#122D85;" points="17.2,96.9 17.2,93.1 13.3,93.1 13.3,96.9 17.2,96.9 	
		"/>
	<polygon style="fill-rule:evenodd;clip-rule:evenodd;fill:#122D85;" points="17.2,107.6 17.2,103.7 13.3,103.7 13.3,107.6 
		17.2,107.6 	"/>
	<polygon style="fill-rule:evenodd;clip-rule:evenodd;fill:#122D85;" points="17.2,118.3 17.2,114.4 13.3,114.4 13.3,118.3 
		17.2,118.3 	"/>
	<polygon style="fill-rule:evenodd;clip-rule:evenodd;fill:#122D85;" points="17.2,128.6 17.2,124.7 13.3,124.7 13.3,128.6 
		17.2,128.6 	"/>
	<polygon style="fill-rule:evenodd;clip-rule:evenodd;fill:#122D85;" points="17.2,138.6 17.2,134.8 13.3,134.8 13.3,138.6 
		17.2,138.6 	"/>
	<polygon style="fill-rule:evenodd;clip-rule:evenodd;fill:#122D85;" points="17.2,147.6 17.2,143.8 13.3,143.8 13.3,147.6 
		17.2,147.6 	"/>
	<polygon style="fill-rule:evenodd;clip-rule:evenodd;fill:#122D85;" points="17.2,155.7 17.2,151.8 13.3,151.8 13.3,155.7 
		17.2,155.7 	"/>
	<polygon style="fill-rule:evenodd;clip-rule:evenodd;fill:#122D85;" points="17.2,162.8 17.2,159 13.3,159 13.3,162.8 17.2,162.8 	
		"/>
	<polygon style="fill-rule:evenodd;clip-rule:evenodd;fill:#122D85;" points="17.2,176 17.2,164.5 13.3,164.5 13.3,176 17.2,176 	
		"/>
	<polygon style="fill-rule:evenodd;clip-rule:evenodd;fill:#122D85;" points="24.3,46.9 24.3,35.3 20.5,35.3 20.5,46.9 24.3,46.9 	
		"/>
	<polygon style="fill-rule:evenodd;clip-rule:evenodd;fill:#122D85;" points="24.3,52.4 24.3,48.5 20.5,48.5 20.5,52.4 24.3,52.4 	
		"/>
	<polygon style="fill-rule:evenodd;clip-rule:evenodd;fill:#122D85;" points="24.3,59.5 24.3,55.6 20.5,55.6 20.5,59.5 24.3,59.5 	
		"/>
	<polygon style="fill-rule:evenodd;clip-rule:evenodd;fill:#122D85;" points="24.3,67.5 24.3,63.7 20.5,63.7 20.5,67.5 24.3,67.5 	
		"/>
	<polygon style="fill-rule:evenodd;clip-rule:evenodd;fill:#122D85;" points="24.3,76.6 24.3,72.7 20.5,72.7 20.5,76.6 24.3,76.6 	
		"/>
	<polygon style="fill-rule:evenodd;clip-rule:evenodd;fill:#122D85;" points="24.3,86.6 24.3,82.7 20.5,82.7 20.5,86.6 24.3,86.6 	
		"/>
	<polygon style="fill-rule:evenodd;clip-rule:evenodd;fill:#122D85;" points="24.3,96.9 24.3,93.1 20.5,93.1 20.5,96.9 24.3,96.9 	
		"/>
	<polygon style="fill-rule:evenodd;clip-rule:evenodd;fill:#122D85;" points="24.3,107.6 24.3,103.7 20.5,103.7 20.5,107.6 
		24.3,107.6 	"/>
	<polygon style="fill-rule:evenodd;clip-rule:evenodd;fill:#122D85;" points="24.3,118.3 24.3,114.4 20.5,114.4 20.5,118.3 
		24.3,118.3 	"/>
	<polygon style="fill-rule:evenodd;clip-rule:evenodd;fill:#122D85;" points="24.3,128.6 24.3,124.7 20.5,124.7 20.5,128.6 
		24.3,128.6 	"/>
	<polygon style="fill-rule:evenodd;clip-rule:evenodd;fill:#122D85;" points="24.3,138.6 24.3,134.8 20.5,134.8 20.5,138.6 
		24.3,138.6 	"/>
	<polygon style="fill-rule:evenodd;clip-rule:evenodd;fill:#122D85;" points="24.3,147.6 24.3,143.8 20.5,143.8 20.5,147.6 
		24.3,147.6 	"/>
	<polygon style="fill-rule:evenodd;clip-rule:evenodd;fill:#122D85;" points="24.3,155.7 24.3,151.8 20.5,151.8 20.5,155.7 
		24.3,155.7 	"/>
	<polygon style="fill-rule:evenodd;clip-rule:evenodd;fill:#122D85;" points="24.3,162.8 24.3,159 20.5,159 20.5,162.8 24.3,162.8 	
		"/>
	<polygon style="fill-rule:evenodd;clip-rule:evenodd;fill:#122D85;" points="24.3,176 24.3,164.5 20.5,164.5 20.5,176 24.3,176 	
		"/>
	<polygon style="fill-rule:evenodd;clip-rule:evenodd;fill:#122D85;" points="32.5,46.9 32.5,35.3 28.5,35.3 28.5,46.9 32.5,46.9 	
		"/>
	<polygon style="fill-rule:evenodd;clip-rule:evenodd;fill:#122D85;" points="32.5,52.4 32.5,48.5 28.5,48.5 28.5,52.4 32.5,52.4 	
		"/>
	<polygon style="fill-rule:evenodd;clip-rule:evenodd;fill:#122D85;" points="32.5,59.5 32.5,55.6 28.5,55.6 28.5,59.5 32.5,59.5 	
		"/>
	<polygon style="fill-rule:evenodd;clip-rule:evenodd;fill:#122D85;" points="32.5,67.5 32.5,63.7 28.5,63.7 28.5,67.5 32.5,67.5 	
		"/>
	<polygon style="fill-rule:evenodd;clip-rule:evenodd;fill:#122D85;" points="32.5,76.6 32.5,72.7 28.5,72.7 28.5,76.6 32.5,76.6 	
		"/>
	<polygon style="fill-rule:evenodd;clip-rule:evenodd;fill:#122D85;" points="32.5,86.6 32.5,82.7 28.5,82.7 28.5,86.6 32.5,86.6 	
		"/>
	<polygon style="fill-rule:evenodd;clip-rule:evenodd;fill:#122D85;" points="32.5,96.9 32.5,93.1 28.5,93.1 28.5,96.9 32.5,96.9 	
		"/>
	<polygon style="fill-rule:evenodd;clip-rule:evenodd;fill:#122D85;" points="32.5,107.6 32.5,103.7 28.5,103.7 28.5,107.6 
		32.5,107.6 	"/>
	<polygon style="fill-rule:evenodd;clip-rule:evenodd;fill:#122D85;" points="32.5,118.3 32.5,114.4 28.5,114.4 28.5,118.3 
		32.5,118.3 	"/>
	<polygon style="fill-rule:evenodd;clip-rule:evenodd;fill:#122D85;" points="32.5,128.6 32.5,124.7 28.5,124.7 28.5,128.6 
		32.5,128.6 	"/>
	<polygon style="fill-rule:evenodd;clip-rule:evenodd;fill:#122D85;" points="32.5,138.6 32.5,134.8 28.5,134.8 28.5,138.6 
		32.5,138.6 	"/>
	<polygon style="fill-rule:evenodd;clip-rule:evenodd;fill:#122D85;" points="32.5,147.6 32.5,143.8 28.5,143.8 28.5,147.6 
		32.5,147.6 	"/>
	<polygon style="fill-rule:evenodd;clip-rule:evenodd;fill:#122D85;" points="32.5,155.7 32.5,151.8 28.5,151.8 28.5,155.7 
		32.5,155.7 	"/>
	<polygon style="fill-rule:evenodd;clip-rule:evenodd;fill:#122D85;" points="32.5,162.8 32.5,159 28.5,159 28.5,162.8 32.5,162.8 	
		"/>
	<polygon style="fill-rule:evenodd;clip-rule:evenodd;fill:#122D85;" points="32.5,176 32.5,164.5 28.5,164.5 28.5,176 32.5,176 	
		"/>
	<polygon style="fill-rule:evenodd;clip-rule:evenodd;fill:#122D85;" points="41.6,46.9 41.6,35.3 37.7,35.3 37.7,46.9 41.6,46.9 	
		"/>
	<polygon style="fill-rule:evenodd;clip-rule:evenodd;fill:#122D85;" points="41.6,52.4 41.6,48.5 37.7,48.5 37.7,52.4 41.6,52.4 	
		"/>
	<polygon style="fill-rule:evenodd;clip-rule:evenodd;fill:#122D85;" points="41.6,59.5 41.6,55.6 37.7,55.6 37.7,59.5 41.6,59.5 	
		"/>
	<polygon style="fill-rule:evenodd;clip-rule:evenodd;fill:#122D85;" points="41.6,67.5 41.6,63.7 37.7,63.7 37.7,67.5 41.6,67.5 	
		"/>
	<polygon style="fill-rule:evenodd;clip-rule:evenodd;fill:#122D85;" points="41.6,76.6 41.6,72.7 37.7,72.7 37.7,76.6 41.6,76.6 	
		"/>
	<polygon style="fill-rule:evenodd;clip-rule:evenodd;fill:#122D85;" points="41.6,86.6 41.6,82.7 37.7,82.7 37.7,86.6 41.6,86.6 	
		"/>
	<polygon style="fill-rule:evenodd;clip-rule:evenodd;fill:#122D85;" points="41.6,96.9 41.6,93.1 37.7,93.1 37.7,96.9 41.6,96.9 	
		"/>
	<polygon style="fill-rule:evenodd;clip-rule:evenodd;fill:#122D85;" points="41.6,107.6 41.6,103.7 37.7,103.7 37.7,107.6 
		41.6,107.6 	"/>
	<polygon style="fill-rule:evenodd;clip-rule:evenodd;fill:#122D85;" points="41.6,118.3 41.6,114.4 37.7,114.4 37.7,118.3 
		41.6,118.3 	"/>
	<polygon style="fill-rule:evenodd;clip-rule:evenodd;fill:#122D85;" points="41.6,128.6 41.6,124.7 37.7,124.7 37.7,128.6 
		41.6,128.6 	"/>
	<polygon style="fill-rule:evenodd;clip-rule:evenodd;fill:#122D85;" points="41.6,138.6 41.6,134.8 37.7,134.8 37.7,138.6 
		41.6,138.6 	"/>
	<polygon style="fill-rule:evenodd;clip-rule:evenodd;fill:#122D85;" points="41.6,147.6 41.6,143.8 37.7,143.8 37.7,147.6 
		41.6,147.6 	"/>
	<polygon style="fill-rule:evenodd;clip-rule:evenodd;fill:#122D85;" points="41.6,155.7 41.6,151.8 37.7,151.8 37.7,155.7 
		41.6,155.7 	"/>
	<polygon style="fill-rule:evenodd;clip-rule:evenodd;fill:#122D85;" points="41.6,162.8 41.6,159 37.7,159 37.7,162.8 41.6,162.8 	
		"/>
	<polygon style="fill-rule:evenodd;clip-rule:evenodd;fill:#122D85;" points="41.6,176 41.6,164.5 37.7,164.5 37.7,176 41.6,176 	
		"/>
	<polygon style="fill-rule:evenodd;clip-rule:evenodd;fill:#122D85;" points="51.6,46.9 51.6,35.3 47.7,35.3 47.7,46.9 51.6,46.9 	
		"/>
	<polygon style="fill-rule:evenodd;clip-rule:evenodd;fill:#122D85;" points="51.6,52.4 51.6,48.5 47.7,48.5 47.7,52.4 51.6,52.4 	
		"/>
	<polygon style="fill-rule:evenodd;clip-rule:evenodd;fill:#122D85;" points="51.6,59.5 51.6,55.6 47.7,55.6 47.7,59.5 51.6,59.5 	
		"/>
	<polygon style="fill-rule:evenodd;clip-rule:evenodd;fill:#122D85;" points="51.6,67.5 51.6,63.7 47.7,63.7 47.7,67.5 51.6,67.5 	
		"/>
	<polygon style="fill-rule:evenodd;clip-rule:evenodd;fill:#122D85;" points="51.6,76.6 51.6,72.7 47.7,72.7 47.7,76.6 51.6,76.6 	
		"/>
	<polygon style="fill-rule:evenodd;clip-rule:evenodd;fill:#122D85;" points="51.6,86.6 51.6,82.7 47.7,82.7 47.7,86.6 51.6,86.6 	
		"/>
	<polygon style="fill-rule:evenodd;clip-rule:evenodd;fill:#122D85;" points="51.6,96.9 51.6,93.1 47.7,93.1 47.7,96.9 51.6,96.9 	
		"/>
	<polygon style="fill-rule:evenodd;clip-rule:evenodd;fill:#122D85;" points="51.6,107.6 51.6,103.7 47.7,103.7 47.7,107.6 
		51.6,107.6 	"/>
	<polygon style="fill-rule:evenodd;clip-rule:evenodd;fill:#122D85;" points="51.6,118.3 51.6,114.4 47.7,114.4 47.7,118.3 
		51.6,118.3 	"/>
	<polygon style="fill-rule:evenodd;clip-rule:evenodd;fill:#122D85;" points="51.6,128.6 51.6,124.7 47.7,124.7 47.7,128.6 
		51.6,128.6 	"/>
	<polygon style="fill-rule:evenodd;clip-rule:evenodd;fill:#122D85;" points="51.6,138.6 51.6,134.8 47.7,134.8 47.7,138.6 
		51.6,138.6 	"/>
	<polygon style="fill-rule:evenodd;clip-rule:evenodd;fill:#122D85;" points="51.6,147.6 51.6,143.8 47.7,143.8 47.7,147.6 
		51.6,147.6 	"/>
	<polygon style="fill-rule:evenodd;clip-rule:evenodd;fill:#122D85;" points="51.6,155.7 51.6,151.8 47.7,151.8 47.7,155.7 
		51.6,155.7 	"/>
	<polygon style="fill-rule:evenodd;clip-rule:evenodd;fill:#122D85;" points="51.6,162.8 51.6,159 47.7,159 47.7,162.8 51.6,162.8 	
		"/>
	<polygon style="fill-rule:evenodd;clip-rule:evenodd;fill:#122D85;" points="51.6,176 51.6,164.5 47.7,164.5 47.7,176 51.6,176 	
		"/>
	<polygon style="fill-rule:evenodd;clip-rule:evenodd;fill:#122D85;" points="62.1,46.9 62.1,35.3 58.1,35.3 58.1,46.9 62.1,46.9 	
		"/>
	<polygon style="fill-rule:evenodd;clip-rule:evenodd;fill:#122D85;" points="62.1,52.4 62.1,48.5 58.1,48.5 58.1,52.4 62.1,52.4 	
		"/>
	<polygon style="fill-rule:evenodd;clip-rule:evenodd;fill:#122D85;" points="62.1,59.5 62.1,55.6 58.1,55.6 58.1,59.5 62.1,59.5 	
		"/>
	<polygon style="fill-rule:evenodd;clip-rule:evenodd;fill:#122D85;" points="62.1,67.5 62.1,63.7 58.1,63.7 58.1,67.5 62.1,67.5 	
		"/>
	<polygon style="fill-rule:evenodd;clip-rule:evenodd;fill:#122D85;" points="62.1,76.6 62.1,72.7 58.1,72.7 58.1,76.6 62.1,76.6 	
		"/>
	<polygon style="fill-rule:evenodd;clip-rule:evenodd;fill:#122D85;" points="62.1,86.6 62.1,82.7 58.1,82.7 58.1,86.6 62.1,86.6 	
		"/>
	<polygon style="fill-rule:evenodd;clip-rule:evenodd;fill:#122D85;" points="62.1,96.9 62.1,93.1 58.1,93.1 58.1,96.9 62.1,96.9 	
		"/>
	<polygon style="fill-rule:evenodd;clip-rule:evenodd;fill:#122D85;" points="62.1,107.6 62.1,103.7 58.1,103.7 58.1,107.6 
		62.1,107.6 	"/>
	<polygon style="fill-rule:evenodd;clip-rule:evenodd;fill:#122D85;" points="62.1,118.3 62.1,114.4 58.1,114.4 58.1,118.3 
		62.1,118.3 	"/>
	<polygon style="fill-rule:evenodd;clip-rule:evenodd;fill:#122D85;" points="62.1,128.6 62.1,124.7 58.1,124.7 58.1,128.6 
		62.1,128.6 	"/>
	<polygon style="fill-rule:evenodd;clip-rule:evenodd;fill:#122D85;" points="62.1,138.6 62.1,134.8 58.1,134.8 58.1,138.6 
		62.1,138.6 	"/>
	<polygon style="fill-rule:evenodd;clip-rule:evenodd;fill:#122D85;" points="62.1,147.6 62.1,143.8 58.1,143.8 58.1,147.6 
		62.1,147.6 	"/>
	<polygon style="fill-rule:evenodd;clip-rule:evenodd;fill:#122D85;" points="62.1,155.7 62.1,151.8 58.1,151.8 58.1,155.7 
		62.1,155.7 	"/>
	<polygon style="fill-rule:evenodd;clip-rule:evenodd;fill:#122D85;" points="62.1,162.8 62.1,159 58.1,159 58.1,162.8 62.1,162.8 	
		"/>
	<polygon style="fill-rule:evenodd;clip-rule:evenodd;fill:#122D85;" points="62.1,176 62.1,164.5 58.1,164.5 58.1,176 62.1,176 	
		"/>
	<polygon style="fill-rule:evenodd;clip-rule:evenodd;fill:#122D85;" points="72.7,46.9 72.7,35.3 68.8,35.3 68.8,46.9 72.7,46.9 	
		"/>
	<polygon style="fill-rule:evenodd;clip-rule:evenodd;fill:#122D85;" points="72.7,52.4 72.7,48.5 68.8,48.5 68.8,52.4 72.7,52.4 	
		"/>
	<polygon style="fill-rule:evenodd;clip-rule:evenodd;fill:#122D85;" points="72.7,59.5 72.7,55.6 68.8,55.6 68.8,59.5 72.7,59.5 	
		"/>
	<polygon style="fill-rule:evenodd;clip-rule:evenodd;fill:#122D85;" points="72.7,67.5 72.7,63.7 68.8,63.7 68.8,67.5 72.7,67.5 	
		"/>
	<polygon style="fill-rule:evenodd;clip-rule:evenodd;fill:#122D85;" points="72.7,76.6 72.7,72.7 68.8,72.7 68.8,76.6 72.7,76.6 	
		"/>
	<polygon style="fill-rule:evenodd;clip-rule:evenodd;fill:#122D85;" points="72.7,86.6 72.7,82.7 68.8,82.7 68.8,86.6 72.7,86.6 	
		"/>
	<polygon style="fill-rule:evenodd;clip-rule:evenodd;fill:#122D85;" points="72.7,96.9 72.7,93.1 68.8,93.1 68.8,96.9 72.7,96.9 	
		"/>
	<polygon style="fill-rule:evenodd;clip-rule:evenodd;fill:#122D85;" points="72.7,107.6 72.7,103.7 68.8,103.7 68.8,107.6 
		72.7,107.6 	"/>
	<polygon style="fill-rule:evenodd;clip-rule:evenodd;fill:#122D85;" points="72.7,118.3 72.7,114.4 68.8,114.4 68.8,118.3 
		72.7,118.3 	"/>
	<polygon style="fill-rule:evenodd;clip-rule:evenodd;fill:#122D85;" points="72.7,128.6 72.7,124.7 68.8,124.7 68.8,128.6 
		72.7,128.6 	"/>
	<polygon style="fill-rule:evenodd;clip-rule:evenodd;fill:#122D85;" points="72.7,138.6 72.7,134.8 68.8,134.8 68.8,138.6 
		72.7,138.6 	"/>
	<polygon style="fill-rule:evenodd;clip-rule:evenodd;fill:#122D85;" points="72.7,147.6 72.7,143.8 68.8,143.8 68.8,147.6 
		72.7,147.6 	"/>
	<polygon style="fill-rule:evenodd;clip-rule:evenodd;fill:#122D85;" points="72.7,155.7 72.7,151.8 68.8,151.8 68.8,155.7 
		72.7,155.7 	"/>
	<polygon style="fill-rule:evenodd;clip-rule:evenodd;fill:#122D85;" points="72.7,162.8 72.7,159 68.8,159 68.8,162.8 72.7,162.8 	
		"/>
	<polygon style="fill-rule:evenodd;clip-rule:evenodd;fill:#122D85;" points="72.7,176 72.7,164.5 68.8,164.5 68.8,176 72.7,176 	
		"/>
	<polygon style="fill-rule:evenodd;clip-rule:evenodd;fill:#122D85;" points="129.8,46.9 129.8,35.3 141.6,35.3 141.6,46.9 
		129.8,46.9 	"/>
	<polygon style="fill-rule:evenodd;clip-rule:evenodd;fill:#122D85;" points="129.8,52.4 129.8,48.5 141.6,48.5 141.6,52.4 
		129.8,52.4 	"/>
	<polygon style="fill-rule:evenodd;clip-rule:evenodd;fill:#122D85;" points="129.8,59.5 129.8,55.6 141.6,55.6 141.6,59.5 
		129.8,59.5 	"/>
	<polygon style="fill-rule:evenodd;clip-rule:evenodd;fill:#122D85;" points="129.8,67.5 129.8,63.7 141.6,63.7 141.6,67.5 
		129.8,67.5 	"/>
	<polygon style="fill-rule:evenodd;clip-rule:evenodd;fill:#122D85;" points="129.8,76.6 129.8,72.7 141.6,72.7 141.6,76.6 
		129.8,76.6 	"/>
	<polygon style="fill-rule:evenodd;clip-rule:evenodd;fill:#122D85;" points="129.8,86.6 129.8,82.7 141.6,82.7 141.6,86.6 
		129.8,86.6 	"/>
	<polygon style="fill-rule:evenodd;clip-rule:evenodd;fill:#122D85;" points="129.8,96.9 129.8,93.1 141.6,93.1 141.6,96.9 
		129.8,96.9 	"/>
	<polygon style="fill-rule:evenodd;clip-rule:evenodd;fill:#122D85;" points="129.8,107.6 129.8,103.7 141.6,103.7 141.6,107.6 
		129.8,107.6 	"/>
	<polygon style="fill-rule:evenodd;clip-rule:evenodd;fill:#122D85;" points="129.8,118.3 129.8,114.4 141.6,114.4 141.6,118.3 
		129.8,118.3 	"/>
	<polygon style="fill-rule:evenodd;clip-rule:evenodd;fill:#122D85;" points="129.8,128.6 129.8,124.7 141.6,124.7 141.6,128.6 
		129.8,128.6 	"/>
	<polygon style="fill-rule:evenodd;clip-rule:evenodd;fill:#122D85;" points="129.8,138.6 129.8,134.8 141.6,134.8 141.6,138.6 
		129.8,138.6 	"/>
	<polygon style="fill-rule:evenodd;clip-rule:evenodd;fill:#122D85;" points="129.8,147.6 129.8,143.8 141.6,143.8 141.6,147.6 
		129.8,147.6 	"/>
	<polygon style="fill-rule:evenodd;clip-rule:evenodd;fill:#122D85;" points="129.8,155.7 129.8,151.8 141.6,151.8 141.6,155.7 
		129.8,155.7 	"/>
	<polygon style="fill-rule:evenodd;clip-rule:evenodd;fill:#122D85;" points="129.8,162.8 129.8,159 141.6,159 141.6,162.8 
		129.8,162.8 	"/>
	<polygon style="fill-rule:evenodd;clip-rule:evenodd;fill:#122D85;" points="129.8,176 129.8,164.5 141.6,164.5 141.6,176 
		129.8,176 	"/>
	<polygon style="fill-rule:evenodd;clip-rule:evenodd;fill:#122D85;" points="124.3,46.9 124.3,35.3 128.2,35.3 128.2,46.9 
		124.3,46.9 	"/>
	<polygon style="fill-rule:evenodd;clip-rule:evenodd;fill:#122D85;" points="124.3,52.4 124.3,48.5 128.2,48.5 128.2,52.4 
		124.3,52.4 	"/>
	<polygon style="fill-rule:evenodd;clip-rule:evenodd;fill:#122D85;" points="124.3,59.5 124.3,55.6 128.2,55.6 128.2,59.5 
		124.3,59.5 	"/>
	<polygon style="fill-rule:evenodd;clip-rule:evenodd;fill:#122D85;" points="124.3,67.5 124.3,63.7 128.2,63.7 128.2,67.5 
		124.3,67.5 	"/>
	<polygon style="fill-rule:evenodd;clip-rule:evenodd;fill:#122D85;" points="124.3,76.6 124.3,72.7 128.2,72.7 128.2,76.6 
		124.3,76.6 	"/>
	<polygon style="fill-rule:evenodd;clip-rule:evenodd;fill:#122D85;" points="124.3,86.6 124.3,82.7 128.2,82.7 128.2,86.6 
		124.3,86.6 	"/>
	<polygon style="fill-rule:evenodd;clip-rule:evenodd;fill:#122D85;" points="124.3,96.9 124.3,93.1 128.2,93.1 128.2,96.9 
		124.3,96.9 	"/>
	<polygon style="fill-rule:evenodd;clip-rule:evenodd;fill:#122D85;" points="124.3,107.6 124.3,103.7 128.2,103.7 128.2,107.6 
		124.3,107.6 	"/>
	<polygon style="fill-rule:evenodd;clip-rule:evenodd;fill:#122D85;" points="124.3,118.3 124.3,114.4 128.2,114.4 128.2,118.3 
		124.3,118.3 	"/>
	<polygon style="fill-rule:evenodd;clip-rule:evenodd;fill:#122D85;" points="124.3,128.6 124.3,124.7 128.2,124.7 128.2,128.6 
		124.3,128.6 	"/>
	<polygon style="fill-rule:evenodd;clip-rule:evenodd;fill:#122D85;" points="124.3,138.6 124.3,134.8 128.2,134.8 128.2,138.6 
		124.3,138.6 	"/>
	<polygon style="fill-rule:evenodd;clip-rule:evenodd;fill:#122D85;" points="124.3,147.6 124.3,143.8 128.2,143.8 128.2,147.6 
		124.3,147.6 	"/>
	<polygon style="fill-rule:evenodd;clip-rule:evenodd;fill:#122D85;" points="124.3,155.7 124.3,151.8 128.2,151.8 128.2,155.7 
		124.3,155.7 	"/>
	<polygon style="fill-rule:evenodd;clip-rule:evenodd;fill:#122D85;" points="124.3,162.8 124.3,159 128.2,159 128.2,162.8 
		124.3,162.8 	"/>
	<polygon style="fill-rule:evenodd;clip-rule:evenodd;fill:#122D85;" points="124.3,176 124.3,164.5 128.2,164.5 128.2,176 
		124.3,176 	"/>
	<polygon style="fill-rule:evenodd;clip-rule:evenodd;fill:#122D85;" points="117.2,46.9 117.2,35.3 121.1,35.3 121.1,46.9 
		117.2,46.9 	"/>
	<polygon style="fill-rule:evenodd;clip-rule:evenodd;fill:#122D85;" points="117.2,52.4 117.2,48.5 121.1,48.5 121.1,52.4 
		117.2,52.4 	"/>
	<polygon style="fill-rule:evenodd;clip-rule:evenodd;fill:#122D85;" points="117.2,59.5 117.2,55.6 121.1,55.6 121.1,59.5 
		117.2,59.5 	"/>
	<polygon style="fill-rule:evenodd;clip-rule:evenodd;fill:#122D85;" points="117.2,67.5 117.2,63.7 121.1,63.7 121.1,67.5 
		117.2,67.5 	"/>
	<polygon style="fill-rule:evenodd;clip-rule:evenodd;fill:#122D85;" points="117.2,76.6 117.2,72.7 121.1,72.7 121.1,76.6 
		117.2,76.6 	"/>
	<polygon style="fill-rule:evenodd;clip-rule:evenodd;fill:#122D85;" points="117.2,86.6 117.2,82.7 121.1,82.7 121.1,86.6 
		117.2,86.6 	"/>
	<polygon style="fill-rule:evenodd;clip-rule:evenodd;fill:#122D85;" points="117.2,96.9 117.2,93.1 121.1,93.1 121.1,96.9 
		117.2,96.9 	"/>
	<polygon style="fill-rule:evenodd;clip-rule:evenodd;fill:#122D85;" points="117.2,107.6 117.2,103.7 121.1,103.7 121.1,107.6 
		117.2,107.6 	"/>
	<polygon style="fill-rule:evenodd;clip-rule:evenodd;fill:#122D85;" points="117.2,118.3 117.2,114.4 121.1,114.4 121.1,118.3 
		117.2,118.3 	"/>
	<polygon style="fill-rule:evenodd;clip-rule:evenodd;fill:#122D85;" points="117.2,128.6 117.2,124.7 121.1,124.7 121.1,128.6 
		117.2,128.6 	"/>
	<polygon style="fill-rule:evenodd;clip-rule:evenodd;fill:#122D85;" points="117.2,138.6 117.2,134.8 121.1,134.8 121.1,138.6 
		117.2,138.6 	"/>
	<polygon style="fill-rule:evenodd;clip-rule:evenodd;fill:#122D85;" points="117.2,147.6 117.2,143.8 121.1,143.8 121.1,147.6 
		117.2,147.6 	"/>
	<polygon style="fill-rule:evenodd;clip-rule:evenodd;fill:#122D85;" points="117.2,155.7 117.2,151.8 121.1,151.8 121.1,155.7 
		117.2,155.7 	"/>
	<polygon style="fill-rule:evenodd;clip-rule:evenodd;fill:#122D85;" points="117.2,162.8 117.2,159 121.1,159 121.1,162.8 
		117.2,162.8 	"/>
	<polygon style="fill-rule:evenodd;clip-rule:evenodd;fill:#122D85;" points="117.2,176 117.2,164.5 121.1,164.5 121.1,176 
		117.2,176 	"/>
	<polygon style="fill-rule:evenodd;clip-rule:evenodd;fill:#122D85;" points="109,46.9 109,35.3 113,35.3 113,46.9 109,46.9 	"/>
	<polygon style="fill-rule:evenodd;clip-rule:evenodd;fill:#122D85;" points="109,52.4 109,48.5 113,48.5 113,52.4 109,52.4 	"/>
	<polygon style="fill-rule:evenodd;clip-rule:evenodd;fill:#122D85;" points="109,59.5 109,55.6 113,55.6 113,59.5 109,59.5 	"/>
	<polygon style="fill-rule:evenodd;clip-rule:evenodd;fill:#122D85;" points="109,67.5 109,63.7 113,63.7 113,67.5 109,67.5 	"/>
	<polygon style="fill-rule:evenodd;clip-rule:evenodd;fill:#122D85;" points="109,76.6 109,72.7 113,72.7 113,76.6 109,76.6 	"/>
	<polygon style="fill-rule:evenodd;clip-rule:evenodd;fill:#122D85;" points="109,86.6 109,82.7 113,82.7 113,86.6 109,86.6 	"/>
	<polygon style="fill-rule:evenodd;clip-rule:evenodd;fill:#122D85;" points="109,96.9 109,93.1 113,93.1 113,96.9 109,96.9 	"/>
	<polygon style="fill-rule:evenodd;clip-rule:evenodd;fill:#122D85;" points="109,107.6 109,103.7 113,103.7 113,107.6 109,107.6 	
		"/>
	<polygon style="fill-rule:evenodd;clip-rule:evenodd;fill:#122D85;" points="109,118.3 109,114.4 113,114.4 113,118.3 109,118.3 	
		"/>
	<polygon style="fill-rule:evenodd;clip-rule:evenodd;fill:#122D85;" points="109,128.6 109,124.7 113,124.7 113,128.6 109,128.6 	
		"/>
	<polygon style="fill-rule:evenodd;clip-rule:evenodd;fill:#122D85;" points="109,138.6 109,134.8 113,134.8 113,138.6 109,138.6 	
		"/>
	<polygon style="fill-rule:evenodd;clip-rule:evenodd;fill:#122D85;" points="109,147.6 109,143.8 113,143.8 113,147.6 109,147.6 	
		"/>
	<polygon style="fill-rule:evenodd;clip-rule:evenodd;fill:#122D85;" points="109,155.7 109,151.8 113,151.8 113,155.7 109,155.7 	
		"/>
	<polygon style="fill-rule:evenodd;clip-rule:evenodd;fill:#122D85;" points="109,162.8 109,159 113,159 113,162.8 109,162.8 	"/>
	<polygon style="fill-rule:evenodd;clip-rule:evenodd;fill:#122D85;" points="109,176 109,164.5 113,164.5 113,176 109,176 	"/>
	<polygon style="fill-rule:evenodd;clip-rule:evenodd;fill:#122D85;" points="100,46.9 100,35.3 103.9,35.3 103.9,46.9 100,46.9 	
		"/>
	<polygon style="fill-rule:evenodd;clip-rule:evenodd;fill:#122D85;" points="100,52.4 100,48.5 103.9,48.5 103.9,52.4 100,52.4 	
		"/>
	<polygon style="fill-rule:evenodd;clip-rule:evenodd;fill:#122D85;" points="100,59.5 100,55.6 103.9,55.6 103.9,59.5 100,59.5 	
		"/>
	<polygon style="fill-rule:evenodd;clip-rule:evenodd;fill:#122D85;" points="100,67.5 100,63.7 103.9,63.7 103.9,67.5 100,67.5 	
		"/>
	<polygon style="fill-rule:evenodd;clip-rule:evenodd;fill:#122D85;" points="100,76.6 100,72.7 103.9,72.7 103.9,76.6 100,76.6 	
		"/>
	<polygon style="fill-rule:evenodd;clip-rule:evenodd;fill:#122D85;" points="100,86.6 100,82.7 103.9,82.7 103.9,86.6 100,86.6 	
		"/>
	<polygon style="fill-rule:evenodd;clip-rule:evenodd;fill:#122D85;" points="100,96.9 100,93.1 103.9,93.1 103.9,96.9 100,96.9 	
		"/>
	<polygon style="fill-rule:evenodd;clip-rule:evenodd;fill:#122D85;" points="100,107.6 100,103.7 103.9,103.7 103.9,107.6 
		100,107.6 	"/>
	<polygon style="fill-rule:evenodd;clip-rule:evenodd;fill:#122D85;" points="100,118.3 100,114.4 103.9,114.4 103.9,118.3 
		100,118.3 	"/>
	<polygon style="fill-rule:evenodd;clip-rule:evenodd;fill:#122D85;" points="100,128.6 100,124.7 103.9,124.7 103.9,128.6 
		100,128.6 	"/>
	<polygon style="fill-rule:evenodd;clip-rule:evenodd;fill:#122D85;" points="100,138.6 100,134.8 103.9,134.8 103.9,138.6 
		100,138.6 	"/>
	<polygon style="fill-rule:evenodd;clip-rule:evenodd;fill:#122D85;" points="100,147.6 100,143.8 103.9,143.8 103.9,147.6 
		100,147.6 	"/>
	<polygon style="fill-rule:evenodd;clip-rule:evenodd;fill:#122D85;" points="100,155.7 100,151.8 103.9,151.8 103.9,155.7 
		100,155.7 	"/>
	<polygon style="fill-rule:evenodd;clip-rule:evenodd;fill:#122D85;" points="100,162.8 100,159 103.9,159 103.9,162.8 100,162.8 	
		"/>
	<polygon style="fill-rule:evenodd;clip-rule:evenodd;fill:#122D85;" points="100,176 100,164.5 103.9,164.5 103.9,176 100,176 	"/>
	<polygon style="fill-rule:evenodd;clip-rule:evenodd;fill:#122D85;" points="89.9,46.9 89.9,35.3 93.8,35.3 93.8,46.9 89.9,46.9 	
		"/>
	<polygon style="fill-rule:evenodd;clip-rule:evenodd;fill:#122D85;" points="89.9,52.4 89.9,48.5 93.8,48.5 93.8,52.4 89.9,52.4 	
		"/>
	<polygon style="fill-rule:evenodd;clip-rule:evenodd;fill:#122D85;" points="89.9,59.5 89.9,55.6 93.8,55.6 93.8,59.5 89.9,59.5 	
		"/>
	<polygon style="fill-rule:evenodd;clip-rule:evenodd;fill:#122D85;" points="89.9,67.5 89.9,63.7 93.8,63.7 93.8,67.5 89.9,67.5 	
		"/>
	<polygon style="fill-rule:evenodd;clip-rule:evenodd;fill:#122D85;" points="89.9,76.6 89.9,72.7 93.8,72.7 93.8,76.6 89.9,76.6 	
		"/>
	<polygon style="fill-rule:evenodd;clip-rule:evenodd;fill:#122D85;" points="89.9,86.6 89.9,82.7 93.8,82.7 93.8,86.6 89.9,86.6 	
		"/>
	<polygon style="fill-rule:evenodd;clip-rule:evenodd;fill:#122D85;" points="89.9,96.9 89.9,93.1 93.8,93.1 93.8,96.9 89.9,96.9 	
		"/>
	<polygon style="fill-rule:evenodd;clip-rule:evenodd;fill:#122D85;" points="89.9,107.6 89.9,103.7 93.8,103.7 93.8,107.6 
		89.9,107.6 	"/>
	<polygon style="fill-rule:evenodd;clip-rule:evenodd;fill:#122D85;" points="89.9,118.3 89.9,114.4 93.8,114.4 93.8,118.3 
		89.9,118.3 	"/>
	<polygon style="fill-rule:evenodd;clip-rule:evenodd;fill:#122D85;" points="89.9,128.6 89.9,124.7 93.8,124.7 93.8,128.6 
		89.9,128.6 	"/>
	<polygon style="fill-rule:evenodd;clip-rule:evenodd;fill:#122D85;" points="89.9,138.6 89.9,134.8 93.8,134.8 93.8,138.6 
		89.9,138.6 	"/>
	<polygon style="fill-rule:evenodd;clip-rule:evenodd;fill:#122D85;" points="89.9,147.6 89.9,143.8 93.8,143.8 93.8,147.6 
		89.9,147.6 	"/>
	<polygon style="fill-rule:evenodd;clip-rule:evenodd;fill:#122D85;" points="89.9,155.7 89.9,151.8 93.8,151.8 93.8,155.7 
		89.9,155.7 	"/>
	<polygon style="fill-rule:evenodd;clip-rule:evenodd;fill:#122D85;" points="89.9,162.8 89.9,159 93.8,159 93.8,162.8 89.9,162.8 	
		"/>
	<polygon style="fill-rule:evenodd;clip-rule:evenodd;fill:#122D85;" points="89.9,176 89.9,164.5 93.8,164.5 93.8,176 89.9,176 	
		"/>
	<polygon style="fill-rule:evenodd;clip-rule:evenodd;fill:#122D85;" points="79.6,46.9 79.6,35.3 83.4,35.3 83.4,46.9 79.6,46.9 	
		"/>
	<polygon style="fill-rule:evenodd;clip-rule:evenodd;fill:#122D85;" points="79.6,52.4 79.6,48.5 83.4,48.5 83.4,52.4 79.6,52.4 	
		"/>
	<polygon style="fill-rule:evenodd;clip-rule:evenodd;fill:#122D85;" points="79.6,59.5 79.6,55.6 83.4,55.6 83.4,59.5 79.6,59.5 	
		"/>
	<polygon style="fill-rule:evenodd;clip-rule:evenodd;fill:#122D85;" points="79.6,67.5 79.6,63.7 83.4,63.7 83.4,67.5 79.6,67.5 	
		"/>
	<polygon style="fill-rule:evenodd;clip-rule:evenodd;fill:#122D85;" points="79.6,76.6 79.6,72.7 83.4,72.7 83.4,76.6 79.6,76.6 	
		"/>
	<polygon style="fill-rule:evenodd;clip-rule:evenodd;fill:#122D85;" points="79.6,86.6 79.6,82.7 83.4,82.7 83.4,86.6 79.6,86.6 	
		"/>
	<polygon style="fill-rule:evenodd;clip-rule:evenodd;fill:#122D85;" points="79.6,96.9 79.6,93.1 83.4,93.1 83.4,96.9 79.6,96.9 	
		"/>
	<polygon style="fill-rule:evenodd;clip-rule:evenodd;fill:#122D85;" points="79.6,107.6 79.6,103.7 83.4,103.7 83.4,107.6 
		79.6,107.6 	"/>
	<polygon style="fill-rule:evenodd;clip-rule:evenodd;fill:#122D85;" points="79.6,118.3 79.6,114.4 83.4,114.4 83.4,118.3 
		79.6,118.3 	"/>
	<polygon style="fill-rule:evenodd;clip-rule:evenodd;fill:#122D85;" points="79.6,128.6 79.6,124.7 83.4,124.7 83.4,128.6 
		79.6,128.6 	"/>
	<polygon style="fill-rule:evenodd;clip-rule:evenodd;fill:#122D85;" points="79.6,138.6 79.6,134.8 83.4,134.8 83.4,138.6 
		79.6,138.6 	"/>
	<polygon style="fill-rule:evenodd;clip-rule:evenodd;fill:#122D85;" points="79.6,147.6 79.6,143.8 83.4,143.8 83.4,147.6 
		79.6,147.6 	"/>
	<polygon style="fill-rule:evenodd;clip-rule:evenodd;fill:#122D85;" points="79.6,155.7 79.6,151.8 83.4,151.8 83.4,155.7 
		79.6,155.7 	"/>
	<polygon style="fill-rule:evenodd;clip-rule:evenodd;fill:#122D85;" points="79.6,162.8 79.6,159 83.4,159 83.4,162.8 79.6,162.8 	
		"/>
	<polygon style="fill-rule:evenodd;clip-rule:evenodd;fill:#122D85;" points="79.6,176 79.6,164.5 83.4,164.5 83.4,176 79.6,176 	
		"/>
	<polygon style="fill-rule:evenodd;clip-rule:evenodd;" points="153.2,4.3 153.2,0.5 153.8,0.4 154.4,0.3 155,0.3 155.7,0.2 
		156.3,0.1 156.9,0.1 157.6,0.1 158.2,0.1 158.9,0 159.6,0 160.3,0 160.9,0 161.6,0 162.3,0 163,0 163.7,0 163.7,10.4 163.6,10.6 
		163.6,10.9 163.6,11.2 163.6,11.5 163.6,11.8 163.6,12.2 163.6,12.5 163.5,12.8 163.5,13.1 163.5,13.4 163.5,13.7 163.4,14.1 
		163.4,14.4 163.3,14.6 163.3,14.9 163.2,15.2 163.3,15.3 163.5,14.7 163.9,14.3 164.2,13.8 164.6,13.4 164.9,13 165.4,12.6 
		165.9,12.3 166.3,12 166.8,11.7 167.4,11.5 168,11.3 168.5,11.1 169.2,10.9 169.8,10.9 170.5,10.8 171.2,10.8 172.1,10.8 173,10.9 
		173.8,11.1 174.6,11.4 175.2,11.7 175.8,12.1 176.3,12.5 176.8,13 177.2,13.6 177.5,14.2 177.8,14.8 178,15.4 178.1,16.2 
		178.2,16.9 178.3,17.6 178.4,18.5 178.4,35.3 172.2,35.3 172.2,19.9 172.2,19.4 172.2,19 172.1,18.6 172.1,18.2 172,17.9 
		171.9,17.5 171.7,17.2 171.6,17 171.4,16.7 171.2,16.5 170.9,16.3 170.6,16.2 170.3,16.1 170,16 169.6,15.9 169.2,15.9 168.6,16 
		168,16.1 167.5,16.3 167,16.5 166.5,16.8 166.1,17.2 165.7,17.7 165.3,18.2 164.9,18.8 164.6,19.4 164.3,20 164,20.7 163.9,21.4 
		163.7,22.2 163.7,22.9 163.7,23.7 163.7,35.3 157.4,35.3 157.4,4.8 157.2,4.8 157,4.7 156.7,4.7 156.5,4.6 156.2,4.6 155.9,4.6 
		155.7,4.6 155.4,4.5 155.1,4.5 154.9,4.5 154.6,4.5 154.3,4.4 154,4.4 153.8,4.4 153.5,4.3 153.2,4.3 	"/>
	<path style="fill-rule:evenodd;clip-rule:evenodd;" d="M194.2,35.7l-1.3-0.1l-1.2-0.1l-1.1-0.2l-1-0.3l-1-0.4l-0.9-0.5l-0.9-0.5
		l-0.8-0.7l-0.7-0.8l-0.6-0.9l-0.5-1l-0.4-1.1l-0.3-1.2l-0.3-1.3l-0.1-1.4l-0.1-1.5l0.1-1.4l0.1-1.3l0.3-1.3l0.4-1.2l0.5-1.1l0.6-1
		l0.7-1l0.7-0.9l0.9-0.8l0.9-0.7l1-0.6l1.1-0.6l1.1-0.4l1.2-0.3l1.3-0.2l1.4-0.1l1.2,0.1l1.2,0.1l1.1,0.2l1.1,0.3l1,0.4l0.9,0.5
		l0.8,0.6l0.8,0.7l0.7,0.8l0.6,0.9l0.5,1l0.4,1l0.3,1.2l0.3,1.3l0.1,1.4l0.1,1.5l-0.1,1.4l-0.1,1.4l-0.3,1.2l-0.4,1.2l-0.5,1.2
		l-0.6,1l-0.7,1l-0.8,0.9l-0.9,0.8l-0.9,0.7l-1,0.6l-1.1,0.5l-1.1,0.4l-1.2,0.3l-1.3,0.2L194.2,35.7L194.2,35.7z M194.9,16h-0.5
		l-0.5,0.1l-0.5,0.1l-0.5,0.2l-0.5,0.2l-0.5,0.3l-0.4,0.3l-0.4,0.4l-0.3,0.5l-0.3,0.5l-0.3,0.6l-0.3,0.7l-0.2,0.7l-0.1,0.7l-0.1,0.9
		v0.9V24l0.1,0.8l0.1,0.8l0.1,0.7l0.2,0.7l0.2,0.6l0.3,0.5l0.3,0.5l0.3,0.4l0.4,0.4l0.4,0.3l0.5,0.3l0.5,0.2l0.5,0.1l0.6,0.1l0.7,0
		l0.5,0l0.5-0.1l0.5-0.1l0.5-0.2l0.5-0.3l0.4-0.3l0.4-0.4l0.4-0.4l0.3-0.5l0.3-0.5l0.3-0.6l0.2-0.6l0.1-0.7l0.2-0.8l0.1-0.8l0-0.9
		l0-0.9l-0.1-0.8l-0.1-0.7l-0.1-0.7l-0.2-0.6l-0.2-0.6l-0.2-0.5l-0.3-0.5l-0.3-0.4l-0.4-0.4l-0.4-0.3l-0.5-0.3l-0.6-0.2l-0.5-0.1
		l-0.6-0.1H194.9L194.9,16z"/>
	<polygon style="fill-rule:evenodd;clip-rule:evenodd;" points="220.6,35.7 219.4,35.6 218.3,35.5 217.2,35.3 216.1,35 215.2,34.6 
		214.3,34.2 213.4,33.6 212.7,32.9 212.1,32.2 211.5,31.3 211,30.4 210.6,29.3 210.2,28.2 210,26.9 209.9,25.5 209.8,24.1 
		209.9,22.7 210,21.4 210.2,20.1 210.6,18.9 211,17.7 211.5,16.6 212.1,15.6 212.8,14.7 213.6,13.8 214.6,13.1 215.6,12.4 
		216.7,11.9 217.9,11.4 219.2,11.1 220.7,10.9 222.2,10.9 222.5,10.9 222.9,10.9 223.2,10.9 223.5,10.9 223.8,10.9 224.1,11 
		224.4,11 224.8,11 225.1,11.1 225.4,11.1 225.7,11.2 226,11.3 226.3,11.3 226.6,11.4 226.9,11.5 227.2,11.6 226.6,16.9 226.3,16.8 
		226.1,16.7 225.8,16.6 225.6,16.6 225.3,16.5 225,16.4 224.7,16.4 224.5,16.3 224.2,16.2 223.9,16.2 223.7,16.1 223.4,16.1 
		223.1,16.1 222.8,16 222.5,16 222.2,16 221.5,16 220.8,16.2 220.2,16.3 219.6,16.6 219.1,16.8 218.6,17.2 218.2,17.6 217.8,18 
		217.4,18.5 217.1,19.1 216.9,19.7 216.7,20.4 216.5,21.1 216.4,21.8 216.3,22.6 216.3,23.5 216.3,24.2 216.3,24.9 216.5,25.6 
		216.6,26.3 216.8,26.9 217,27.4 217.3,28 217.6,28.4 218,28.9 218.4,29.2 218.8,29.6 219.3,29.8 219.9,30 220.6,30.2 221.3,30.3 
		222,30.4 222.3,30.3 222.6,30.3 222.9,30.3 223.3,30.3 223.6,30.2 223.9,30.2 224.2,30.2 224.5,30.1 224.8,30 225.1,30 225.4,29.9 
		225.7,29.8 226,29.7 226.3,29.6 226.5,29.5 226.8,29.3 227.3,34.6 226.9,34.7 226.6,34.8 226.3,34.9 225.9,35 225.5,35.1 
		225.1,35.2 224.7,35.3 224.3,35.3 223.9,35.4 223.5,35.5 223,35.5 222.5,35.6 222,35.6 221.6,35.7 221.1,35.7 220.6,35.7 	"/>
	<polygon style="fill-rule:evenodd;clip-rule:evenodd;" points="228,4.3 228,0.5 228.6,0.4 229.2,0.3 229.8,0.3 230.5,0.2 
		231.1,0.1 231.7,0.1 232.4,0.1 233.1,0.1 233.7,0 234.4,0 235,0 235.7,0 236.4,0 237.1,0 237.7,0 238.5,0 238.5,10.4 238.4,10.6 
		238.4,10.9 238.4,11.2 238.4,11.5 238.4,11.8 238.4,12.2 238.4,12.5 238.3,12.8 238.3,13.1 238.3,13.4 238.2,13.7 238.2,14.1 
		238.1,14.4 238.1,14.6 238,14.9 238,15.2 238.1,15.3 238.3,14.7 238.6,14.3 239,13.8 239.4,13.4 239.7,13 240.2,12.6 240.6,12.3 
		241.1,12 241.6,11.7 242.2,11.5 242.8,11.3 243.3,11.1 243.9,10.9 244.6,10.9 245.3,10.8 246,10.8 247,10.8 247.9,10.9 248.7,11.1 
		249.4,11.4 250,11.7 250.6,12.1 251.1,12.5 251.6,13 252,13.6 252.3,14.2 252.6,14.8 252.8,15.4 252.9,16.2 253,16.9 253.1,17.6 
		253.2,18.5 253.2,35.3 247,35.3 247,19.9 247,19.4 247,19 246.9,18.6 246.9,18.2 246.8,17.9 246.7,17.5 246.5,17.2 246.4,17 
		246.2,16.7 246,16.5 245.7,16.3 245.5,16.2 245.1,16.1 244.8,16 244.4,15.9 244,15.9 243.4,16 242.8,16.1 242.3,16.3 241.8,16.5 
		241.3,16.8 240.8,17.2 240.4,17.7 240,18.2 239.7,18.8 239.4,19.4 239.1,20 238.8,20.7 238.7,21.4 238.5,22.2 238.5,22.9 
		238.5,23.7 238.5,35.3 232.2,35.3 232.2,4.8 232,4.8 231.8,4.7 231.5,4.7 231.3,4.6 231,4.6 230.8,4.6 230.5,4.6 230.2,4.5 
		229.9,4.5 229.7,4.5 229.4,4.5 229.1,4.4 228.8,4.4 228.5,4.4 228.2,4.3 228,4.3 	"/>
	<polygon style="fill-rule:evenodd;clip-rule:evenodd;" points="263.8,35.7 263.5,35.7 263.2,35.7 262.9,35.7 262.5,35.7 
		262.2,35.7 261.9,35.7 261.6,35.6 261.2,35.6 260.9,35.5 260.6,35.5 260.3,35.5 260,35.5 259.7,35.4 259.4,35.4 259.1,35.3 
		258.8,35.3 258.9,30.2 259.2,30.3 259.5,30.4 259.8,30.4 260.1,30.5 260.4,30.6 260.7,30.6 261.1,30.7 261.4,30.7 261.7,30.8 
		262.1,30.8 262.4,30.8 262.7,30.9 263.1,30.9 263.4,30.9 263.8,30.9 264.1,31 264.6,30.9 265,30.9 265.4,30.8 265.7,30.8 
		266.1,30.7 266.4,30.6 266.7,30.4 267,30.2 267.2,30.1 267.4,29.9 267.6,29.7 267.8,29.5 267.9,29.3 268,29 268,28.7 268.1,28.4 
		268,27.7 267.6,27.1 267.1,26.6 266.5,26.2 265.8,25.9 265,25.6 264.1,25.3 263.2,24.9 262.3,24.5 261.4,24 260.5,23.5 259.9,22.8 
		259.2,22 258.7,21 258.4,19.8 258.3,18.5 258.3,17.6 258.5,16.9 258.7,16.2 258.9,15.4 259.3,14.8 259.8,14.2 260.3,13.6 260.8,13 
		261.6,12.5 262.3,12.1 263.2,11.7 264,11.4 265.1,11.1 266.1,10.9 267.3,10.8 268.6,10.8 268.8,10.8 269.1,10.8 269.3,10.8 
		269.6,10.8 269.9,10.8 270.1,10.8 270.4,10.9 270.7,10.9 271,10.9 271.3,10.9 271.6,11 271.8,11 272.1,11.1 272.4,11.1 272.7,11.1 
		272.9,11.2 272.8,16.1 272.5,16 272.2,15.9 272,15.8 271.7,15.8 271.4,15.7 271.1,15.7 270.9,15.6 270.6,15.6 270.3,15.6 270,15.5 
		269.7,15.5 269.4,15.5 269.1,15.4 268.9,15.4 268.6,15.4 268.3,15.4 267.8,15.4 267.4,15.5 267.1,15.5 266.7,15.6 266.4,15.7 
		266.1,15.8 265.8,16 265.6,16.1 265.4,16.3 265.2,16.5 265,16.7 264.9,16.9 264.8,17.1 264.7,17.3 264.7,17.6 264.7,17.9 
		264.8,18.6 265.1,19.1 265.6,19.6 266.2,20 266.9,20.4 267.8,20.7 268.7,21.1 269.6,21.4 270.5,21.8 271.4,22.3 272.3,22.9 
		273,23.5 273.7,24.3 274.2,25.3 274.5,26.5 274.6,27.8 274.5,28.7 274.4,29.5 274.2,30.3 273.8,31 273.4,31.7 272.9,32.4 272.3,33 
		271.7,33.5 270.9,34 270.1,34.4 269.2,34.8 268.3,35.1 267.3,35.4 266.2,35.6 265,35.7 263.8,35.7 	"/>
	<polygon style="fill-rule:evenodd;clip-rule:evenodd;" points="288.9,35.7 287.7,35.6 286.5,35.5 285.4,35.3 284.4,35 283.4,34.6 
		282.5,34.2 281.7,33.6 281,32.9 280.3,32.2 279.7,31.3 279.2,30.4 278.8,29.3 278.5,28.2 278.2,26.9 278.1,25.5 278.1,24.1 
		278.1,22.7 278.2,21.4 278.5,20.1 278.8,18.9 279.2,17.7 279.8,16.6 280.4,15.6 281.1,14.7 281.9,13.8 282.8,13.1 283.8,12.4 
		284.9,11.9 286.2,11.4 287.5,11.1 289,10.9 290.5,10.9 290.8,10.9 291.1,10.9 291.4,10.9 291.7,10.9 292.1,10.9 292.4,11 292.7,11 
		293,11 293.4,11.1 293.7,11.1 293.9,11.2 294.2,11.3 294.5,11.3 294.9,11.4 295.1,11.5 295.5,11.6 294.8,16.9 294.5,16.8 
		294.3,16.7 294,16.6 293.8,16.6 293.6,16.5 293.3,16.4 293,16.4 292.7,16.3 292.5,16.2 292.2,16.2 291.9,16.1 291.6,16.1 
		291.3,16.1 291,16 290.8,16 290.5,16 289.8,16 289.1,16.2 288.5,16.3 287.9,16.6 287.3,16.8 286.9,17.2 286.4,17.6 286,18 
		285.7,18.5 285.4,19.1 285.1,19.7 284.9,20.4 284.8,21.1 284.6,21.8 284.6,22.6 284.6,23.5 284.6,24.2 284.6,24.9 284.7,25.6 
		284.9,26.3 285,26.9 285.3,27.4 285.5,28 285.8,28.4 286.2,28.9 286.6,29.2 287.1,29.6 287.6,29.8 288.2,30 288.9,30.2 289.5,30.3 
		290.3,30.4 290.6,30.3 290.9,30.3 291.2,30.3 291.5,30.3 291.9,30.2 292.2,30.2 292.5,30.2 292.8,30.1 293.1,30 293.4,30 
		293.7,29.9 294,29.8 294.2,29.7 294.5,29.6 294.7,29.5 295,29.3 295.5,34.6 295.1,34.7 294.8,34.8 294.5,34.9 294.1,35 293.7,35.1 
		293.4,35.2 293,35.3 292.6,35.3 292.1,35.4 291.7,35.5 291.2,35.5 290.8,35.6 290.4,35.6 289.9,35.7 289.4,35.7 288.9,35.7 	"/>
	<polygon style="fill-rule:evenodd;clip-rule:evenodd;" points="296.3,4.3 296.3,0.5 296.9,0.4 297.5,0.3 298.1,0.3 298.7,0.2 
		299.3,0.1 300,0.1 300.6,0.1 301.3,0.1 301.9,0 302.6,0 303.3,0 304,0 304.6,0 305.3,0 306,0 306.7,0 306.7,10.4 306.7,10.6 
		306.7,10.9 306.7,11.2 306.7,11.5 306.7,11.8 306.6,12.2 306.6,12.5 306.6,12.8 306.6,13.1 306.5,13.4 306.5,13.7 306.5,14.1 
		306.4,14.4 306.4,14.6 306.3,14.9 306.3,15.2 306.3,15.3 306.6,14.7 306.9,14.3 307.2,13.8 307.6,13.4 308,13 308.4,12.6 
		308.9,12.3 309.4,12 309.9,11.7 310.4,11.5 311,11.3 311.6,11.1 312.2,10.9 312.9,10.9 313.5,10.8 314.2,10.8 315.2,10.8 
		316.1,10.9 316.9,11.1 317.7,11.4 318.3,11.7 318.9,12.1 319.4,12.5 319.9,13 320.3,13.6 320.6,14.2 320.9,14.8 321.1,15.4 
		321.2,16.2 321.3,16.9 321.4,17.6 321.4,18.5 321.4,35.3 315.3,35.3 315.3,19.9 315.2,19.4 315.2,19 315.2,18.6 315.1,18.2 
		315,17.9 314.9,17.5 314.8,17.2 314.6,17 314.4,16.7 314.2,16.5 314,16.3 313.7,16.2 313.4,16.1 313.1,16 312.7,15.9 312.3,15.9 
		311.7,16 311.1,16.1 310.6,16.3 310.1,16.5 309.6,16.8 309.1,17.2 308.7,17.7 308.3,18.2 307.9,18.8 307.6,19.4 307.3,20 
		307.1,20.7 306.9,21.4 306.8,22.2 306.7,22.9 306.7,23.7 306.7,35.3 300.5,35.3 300.5,4.8 300.3,4.8 300,4.7 299.8,4.7 299.5,4.6 
		299.3,4.6 299,4.6 298.7,4.6 298.5,4.5 298.2,4.5 297.9,4.5 297.6,4.5 297.4,4.4 297.1,4.4 296.8,4.4 296.5,4.3 296.3,4.3 	"/>
	<polygon style="fill-rule:evenodd;clip-rule:evenodd;" points="344.7,35.3 344.7,35.1 344.7,34.8 344.7,34.6 344.7,34.3 
		344.7,34.1 344.7,33.8 344.7,33.5 344.7,33.2 344.7,32.9 344.7,32.7 344.8,32.3 344.8,32.1 344.9,31.8 344.9,31.5 344.9,31.3 
		345,31 344.9,31 344.6,31.5 344.3,32 343.9,32.4 343.5,32.9 343.1,33.3 342.7,33.7 342.2,34.1 341.7,34.4 341.2,34.7 340.7,35 
		340.1,35.2 339.4,35.4 338.8,35.5 338.2,35.7 337.5,35.7 336.8,35.8 335.8,35.7 334.9,35.6 334,35.4 333.3,35.1 332.6,34.8 
		332.1,34.4 331.5,34 331.1,33.5 330.7,32.9 330.3,32.3 330,31.7 329.8,31.1 329.7,30.4 329.6,29.6 329.5,28.9 329.5,28.1 329.5,16 
		329.3,16 329,16 328.8,15.9 328.5,15.9 328.3,15.8 328,15.8 327.8,15.8 327.5,15.7 327.2,15.7 327,15.7 326.7,15.6 326.4,15.6 
		326.2,15.6 325.9,15.6 325.6,15.5 325.4,15.5 325.4,11.7 326,11.6 326.6,11.5 327.2,11.5 327.8,11.5 328.5,11.4 329.2,11.4 
		329.8,11.3 330.5,11.3 331.1,11.3 331.8,11.3 332.5,11.2 333.1,11.2 333.8,11.2 334.5,11.2 335.1,11.2 335.8,11.3 335.8,26.6 
		335.8,27.1 335.8,27.5 335.8,27.9 335.9,28.3 335.9,28.7 336.1,29 336.2,29.3 336.3,29.6 336.5,29.8 336.7,30 337,30.2 337.2,30.3 
		337.5,30.4 337.9,30.6 338.3,30.6 338.7,30.6 339.2,30.6 339.8,30.4 340.3,30.2 340.9,30 341.3,29.7 341.8,29.3 342.2,28.8 
		342.7,28.3 343,27.8 343.3,27.2 343.6,26.5 343.8,25.9 344,25.2 344.2,24.4 344.3,23.6 344.3,22.9 344.3,11.3 350.4,11.3 
		350.4,30.5 350.6,30.5 350.9,30.6 351.1,30.6 351.4,30.6 351.6,30.7 351.9,30.7 352.1,30.8 352.4,30.8 352.7,30.8 353,30.8 
		353.3,30.9 353.6,30.9 353.8,31 354.1,31 354.4,31 354.6,31 354.6,34.9 354.1,34.9 353.5,35 352.9,35 352.2,35.1 351.6,35.1 
		351,35.2 350.3,35.2 349.7,35.3 349,35.3 348.4,35.3 347.8,35.3 347.1,35.3 346.5,35.3 345.9,35.3 345.2,35.3 344.7,35.3 	"/>
	<polygon style="fill-rule:evenodd;clip-rule:evenodd;" points="364.8,35.3 358.6,35.3 358.6,4.8 358.4,4.8 358.2,4.7 357.9,4.7 
		357.6,4.6 357.4,4.6 357.1,4.6 356.9,4.6 356.6,4.5 356.3,4.5 356,4.5 355.7,4.5 355.5,4.4 355.2,4.4 354.9,4.4 354.6,4.3 
		354.4,4.3 354.4,0.5 355,0.4 355.6,0.3 356.2,0.3 356.8,0.2 357.4,0.1 358.1,0.1 358.7,0.1 359.4,0.1 360.1,0 360.7,0 361.4,0 
		362.1,0 362.7,0 363.4,0 364.1,0 364.8,0 364.8,35.3 	"/>
	<path style="fill-rule:evenodd;clip-rule:evenodd;" d="M390.9,24.3H376v0.8l0.1,0.7l0.1,0.7l0.2,0.7l0.2,0.6l0.3,0.5l0.3,0.5
		l0.4,0.5l0.5,0.3l0.5,0.4l0.5,0.3l0.6,0.3l0.6,0.2l0.7,0.1l0.8,0.1l0.8,0.1l0.4-0.1h0.4l0.5,0l0.5,0l0.5-0.1l0.5-0.1l0.4-0.1
		l0.5-0.1l0.4-0.1l0.5-0.1l0.5-0.1l0.4-0.1l0.4-0.2l0.4-0.1l0.4-0.2l0.4-0.1l0.6,4.7l-0.5,0.1l-0.5,0.2l-0.5,0.2l-0.5,0.1l-0.6,0.1
		l-0.5,0.2l-0.5,0.1l-0.5,0.1l-0.5,0.1l-0.6,0.1l-0.5,0.1l-0.6,0.1l-0.5,0l-0.6,0h-0.5l-0.5,0.1l-1.4-0.1l-1.3-0.1l-1.2-0.2
		l-1.1-0.3l-1-0.4l-1-0.5l-0.9-0.6l-0.8-0.7l-0.7-0.8l-0.6-0.9l-0.5-1l-0.4-1.1l-0.4-1.2l-0.2-1.3l-0.1-1.4l-0.1-1.5l0.1-1.4
		l0.1-1.3l0.2-1.2l0.3-1.2l0.4-1.1l0.5-1l0.6-1l0.7-0.9l0.8-0.8l0.8-0.7l0.9-0.6l1-0.5l1.1-0.4l1.2-0.3l1.2-0.2l1.3,0l1.2,0l1.2,0.1
		l1.1,0.3l1,0.3l0.9,0.4l0.8,0.6l0.7,0.6l0.7,0.7l0.5,0.7l0.5,0.8l0.4,0.9l0.3,0.9l0.3,1l0.2,1l0.1,1l0,1.1l0,0.1v0.2v0.1v0.2v0.1
		v0.2v0.1v0.2L391,23v0.2l0,0.2v0.2l0,0.2v0.2l-0.1,0.2V24.3L390.9,24.3z M380.9,15.3h-0.5l-0.4,0.1l-0.4,0.1l-0.5,0.1l-0.4,0.2
		l-0.4,0.3l-0.3,0.3l-0.3,0.3l-0.3,0.3l-0.2,0.4l-0.3,0.4l-0.2,0.4l-0.2,0.5l-0.1,0.5l-0.1,0.5l-0.1,0.5h8.8v-0.6l-0.1-0.5l-0.1-0.5
		l-0.1-0.5l-0.2-0.4l-0.2-0.4l-0.2-0.4l-0.2-0.3l-0.3-0.3l-0.3-0.3l-0.4-0.2l-0.3-0.2l-0.4-0.2l-0.5-0.1l-0.4-0.1H380.9L380.9,15.3z
		"/>
	<polygon style="fill-rule:evenodd;clip-rule:evenodd;" points="437.3,35.3 437.3,20.1 437.3,19.6 437.3,19.2 437.2,18.7 
		437.2,18.3 437.1,17.9 437,17.6 436.8,17.3 436.7,17 436.5,16.8 436.4,16.6 436.1,16.4 435.9,16.2 435.5,16.1 435.2,16 434.8,15.9 
		434.4,15.9 433.9,15.9 433.4,16 432.9,16.2 432.4,16.5 431.9,16.8 431.5,17.2 431,17.6 430.6,18.1 430.3,18.7 430,19.2 429.6,19.9 
		429.4,20.6 429.2,21.3 429.1,22.1 428.9,22.9 428.9,23.8 428.9,35.3 422.8,35.3 422.8,20.1 422.8,19.6 422.8,19.2 422.8,18.8 
		422.7,18.4 422.6,18.1 422.5,17.7 422.4,17.4 422.3,17.1 422.1,16.8 421.9,16.6 421.7,16.4 421.4,16.2 421.1,16.1 420.8,16 
		420.4,15.9 420,15.9 419.4,16 418.9,16 418.4,16.2 417.9,16.5 417.4,16.8 416.9,17.2 416.5,17.7 416.1,18.2 415.8,18.7 415.4,19.3 
		415.1,20 414.9,20.7 414.7,21.4 414.6,22.1 414.5,23 414.5,23.8 414.5,35.3 408.3,35.3 408.3,16 408,16 407.8,16 407.6,15.9 
		407.3,15.9 407.1,15.8 406.8,15.8 406.5,15.8 406.3,15.7 406,15.7 405.7,15.7 405.4,15.6 405.2,15.6 404.9,15.6 404.6,15.6 
		404.3,15.5 404.1,15.5 404.1,11.7 404.6,11.6 405.3,11.5 405.9,11.5 406.5,11.5 407.1,11.4 407.7,11.4 408.4,11.3 409,11.3 
		409.7,11.3 410.3,11.3 411,11.2 411.6,11.2 412.2,11.2 412.8,11.2 413.5,11.2 414.1,11.3 414.1,11.5 414.1,11.7 414.1,12 
		414.1,12.2 414.1,12.5 414,12.8 414,13.1 414,13.3 414,13.6 413.9,13.9 413.9,14.2 413.9,14.5 413.9,14.8 413.8,15.1 413.8,15.3 
		413.8,15.6 413.9,15.6 414.1,15.1 414.5,14.5 414.8,14.1 415.2,13.6 415.6,13.2 416,12.8 416.6,12.4 417,12.1 417.6,11.8 
		418.1,11.5 418.6,11.3 419.2,11.1 419.9,11 420.5,10.9 421.1,10.8 421.8,10.8 422.6,10.8 423.3,10.9 423.9,11 424.6,11.2 
		425.1,11.4 425.6,11.7 426.1,12 426.5,12.3 426.9,12.7 427.2,13.1 427.5,13.4 427.7,13.9 427.9,14.3 428.1,14.7 428.3,15.2 
		428.4,15.6 428.6,15.2 428.9,14.7 429.2,14.3 429.6,13.8 429.9,13.4 430.3,13 430.8,12.7 431.2,12.3 431.7,12 432.3,11.7 
		432.9,11.4 433.5,11.2 434.1,11 434.8,10.9 435.5,10.8 436.3,10.8 437.1,10.8 437.9,10.9 438.7,11.1 439.4,11.3 440,11.5 
		440.6,11.9 441.1,12.3 441.6,12.8 442.1,13.2 442.4,13.9 442.8,14.5 443,15.2 443.2,16 443.3,16.9 443.5,17.7 443.5,18.8 
		443.5,35.3 437.3,35.3 	"/>
	<path style="fill-rule:evenodd;clip-rule:evenodd;" d="M463.1,35.3V35v-0.3v-0.3v-0.3V34v-0.3v-0.3l0-0.2v-0.3v-0.3l0.1-0.2v-0.3
		l0-0.3l0-0.2l0.1-0.2l0-0.2l0-0.1l-0.3,0.5l-0.3,0.5l-0.3,0.4L462,33l-0.4,0.4l-0.4,0.4l-0.4,0.3l-0.5,0.3l-0.5,0.3l-0.5,0.3
		l-0.5,0.2l-0.6,0.2l-0.6,0.2l-0.7,0.1l-0.7,0.1l-0.7,0.1l-0.8-0.1l-0.7-0.1l-0.7-0.2l-0.7-0.2L452,35l-0.6-0.3l-0.5-0.3l-0.5-0.4
		l-0.4-0.4l-0.4-0.5l-0.3-0.5l-0.3-0.6l-0.2-0.6l-0.1-0.6l-0.1-0.7v-0.7l0-1l0.2-1l0.3-0.9l0.5-0.9l0.6-0.8l0.7-0.7l0.8-0.6l0.9-0.6
		l1-0.5l1.1-0.5l1.1-0.4l1.2-0.3l1.3-0.2l1.4-0.2l1.4-0.1h1.5v-1.3l0-0.5l0-0.4l-0.1-0.4l-0.1-0.4l-0.1-0.3L462,17l-0.2-0.3
		l-0.3-0.2l-0.3-0.2l-0.3-0.2l-0.4-0.2l-0.4-0.1l-0.5-0.1l-0.6-0.1l-0.5,0h-0.6h-0.4H457l-0.4,0l-0.5,0.1l-0.5,0.1l-0.5,0.1
		l-0.5,0.1l-0.5,0.1l-0.5,0.1l-0.5,0.1l-0.5,0.2l-0.5,0.1l-0.4,0.2l-0.4,0.2l-0.5,0.2l-0.3,0.2l-0.5-5.2l0.4-0.2l0.5-0.1l0.5-0.2
		l0.5-0.1l0.5-0.1l0.5-0.1l0.5-0.1l0.6-0.1l0.5-0.1l0.6-0.1l0.5-0.1l0.6-0.1l0.6,0l0.6,0h0.6h0.6h1.4l1.2,0.1l1.1,0.2l1.1,0.2
		l0.9,0.3l0.8,0.4l0.7,0.5l0.6,0.5l0.5,0.6l0.4,0.6l0.4,0.7l0.3,0.7l0.2,0.8l0.2,0.9l0.1,0.9l0,1v11.4h0.2l0.2,0l0.3,0.1l0.2,0
		l0.3,0l0.2,0.1l0.3,0l0.3,0.1l0.3,0h0.3l0.3,0l0.3,0.1l0.3,0h0.3l0.3,0L473,31v3.9l-0.6,0l-0.6,0.1l-0.6,0l-0.7,0.1l-0.6,0l-0.6,0
		l-0.6,0.1l-0.7,0h-0.6l-0.7,0.1h-0.6h-0.6h-0.6h-0.6h-0.6H463.1L463.1,35.3z M462.6,24.7h-1.2l-1.1,0.1l-1,0.1l-0.9,0.2l-0.7,0.1
		l-0.7,0.3l-0.6,0.2l-0.5,0.2l-0.4,0.3l-0.4,0.3l-0.3,0.3l-0.2,0.3l-0.2,0.3l-0.1,0.3l0,0.4v0.4v0.3l0,0.3l0,0.2l0.1,0.3l0.1,0.3
		l0.2,0.2l0.1,0.2l0.2,0.2l0.2,0.2l0.2,0.1l0.2,0.1l0.2,0.1l0.3,0.1l0.3,0l0.3,0l0.3,0.1l0.5-0.1l0.6-0.1l0.5-0.1l0.5-0.2l0.4-0.3
		l0.4-0.3l0.4-0.3l0.4-0.4l0.3-0.4l0.3-0.5l0.3-0.5l0.2-0.5l0.1-0.5l0.1-0.5l0.1-0.6l0-0.5V24.7L462.6,24.7z"/>
	<polygon style="fill-rule:evenodd;clip-rule:evenodd;" points="483.7,15.5 483.7,15.6 484,15.1 484.3,14.6 484.7,14.1 485.1,13.6 
		485.4,13.2 485.9,12.8 486.4,12.5 486.9,12.1 487.4,11.8 488,11.5 488.5,11.3 489.1,11.1 489.8,11 490.5,10.9 491.2,10.8 
		491.9,10.8 492.8,10.8 493.7,11 494.5,11.1 495.3,11.4 495.9,11.7 496.5,12.1 497.1,12.6 497.5,13.1 497.9,13.6 498.2,14.2 
		498.5,14.8 498.7,15.5 498.8,16.2 499,16.9 499,17.6 499.1,18.5 499.1,35.3 492.9,35.3 492.9,19.9 492.9,19.5 492.9,19 492.8,18.6 
		492.7,18.2 492.7,17.9 492.5,17.6 492.4,17.3 492.3,17 492.1,16.8 491.9,16.5 491.6,16.3 491.4,16.2 491.1,16.1 490.7,16 
		490.4,15.9 490,15.9 489.4,16 488.8,16.1 488.3,16.3 487.8,16.6 487.3,16.9 486.8,17.3 486.4,17.7 486,18.2 485.6,18.8 485.3,19.4 
		485,20 484.8,20.7 484.6,21.4 484.4,22.2 484.4,22.9 484.4,23.8 484.4,35.3 478.2,35.3 478.2,16 477.9,16 477.7,16 477.5,15.9 
		477.2,15.9 477,15.8 476.7,15.8 476.5,15.8 476.2,15.7 475.9,15.7 475.7,15.7 475.3,15.6 475.1,15.6 474.8,15.6 474.5,15.6 
		474.2,15.5 474,15.5 474,11.7 474.5,11.6 475.2,11.5 475.8,11.5 476.4,11.5 477,11.4 477.6,11.4 478.3,11.3 478.9,11.3 479.6,11.3 
		480.2,11.3 480.9,11.2 481.5,11.2 482.2,11.2 482.8,11.2 483.4,11.2 484,11.3 484,11.5 484,11.7 484,12 484,12.2 484,12.5 
		484,12.8 484,13.1 483.9,13.4 483.9,13.6 483.9,13.9 483.8,14.2 483.8,14.5 483.8,14.8 483.8,15.1 483.7,15.3 483.7,15.5 	"/>
	<polygon style="fill-rule:evenodd;clip-rule:evenodd;" points="512.8,15.5 512.8,15.6 513.1,15.1 513.4,14.6 513.8,14.1 
		514.1,13.6 514.5,13.2 515,12.8 515.5,12.5 515.9,12.1 516.5,11.8 517,11.5 517.6,11.3 518.2,11.1 518.9,11 519.5,10.9 520.2,10.8 
		521,10.8 521.9,10.8 522.9,11 523.6,11.1 524.4,11.4 525,11.7 525.6,12.1 526.1,12.6 526.6,13.1 527,13.6 527.3,14.2 527.6,14.8 
		527.8,15.5 528,16.2 528,16.9 528.1,17.6 528.2,18.5 528.2,35.3 522,35.3 522,19.9 522,19.5 522,19 521.9,18.6 521.9,18.2 
		521.8,17.9 521.7,17.6 521.5,17.3 521.3,17 521.2,16.8 521,16.5 520.7,16.3 520.5,16.2 520.2,16.1 519.8,16 519.4,15.9 519.1,15.9 
		518.5,16 517.9,16.1 517.4,16.3 516.8,16.6 516.3,16.9 515.8,17.3 515.4,17.7 515,18.2 514.7,18.8 514.4,19.4 514.1,20 513.9,20.7 
		513.7,21.4 513.5,22.2 513.4,22.9 513.4,23.8 513.4,35.3 507.3,35.3 507.3,16 507.1,16 506.8,16 506.6,15.9 506.3,15.9 506,15.8 
		505.8,15.8 505.5,15.8 505.3,15.7 505,15.7 504.7,15.7 504.4,15.6 504.1,15.6 503.9,15.6 503.6,15.6 503.3,15.5 503.1,15.5 
		503.1,11.7 503.6,11.6 504.3,11.5 504.9,11.5 505.5,11.5 506.1,11.4 506.7,11.4 507.4,11.3 508,11.3 508.7,11.3 509.3,11.3 
		510,11.2 510.6,11.2 511.2,11.2 511.8,11.2 512.4,11.2 513.1,11.3 513,11.5 513,11.7 513,12 513,12.2 513,12.5 513,12.8 513,13.1 
		513,13.4 513,13.6 513,13.9 512.9,14.2 512.9,14.5 512.8,14.8 512.8,15.1 512.8,15.3 512.8,15.5 	"/>
	<polygon style="fill-rule:evenodd;clip-rule:evenodd;" points="530.9,4.3 530.9,0.5 531.4,0.4 532.1,0.3 532.7,0.3 533.3,0.2 
		533.9,0.1 534.6,0.1 535.2,0.1 535.9,0.1 536.5,0 537.2,0 537.9,0 538.6,0 539.2,0 539.9,0 540.6,0 541.3,0 541.3,10.4 541.2,10.6 
		541.2,10.9 541.2,11.2 541.2,11.5 541.2,11.8 541.2,12.2 541.2,12.5 541.2,12.8 541.1,13.1 541.1,13.4 541.1,13.7 541,14.1 
		541,14.4 540.9,14.6 540.9,14.9 540.9,15.2 540.9,15.3 541.2,14.7 541.5,14.3 541.8,13.8 542.2,13.4 542.6,13 543,12.6 543.5,12.3 
		544,12 544.5,11.7 545,11.5 545.6,11.3 546.2,11.1 546.8,10.9 547.5,10.9 548.2,10.8 548.8,10.8 549.8,10.8 550.7,10.9 551.5,11.1 
		552.2,11.4 552.9,11.7 553.5,12.1 554,12.5 554.4,13 554.8,13.6 555.1,14.2 555.4,14.8 555.6,15.4 555.8,16.2 555.9,16.9 556,17.6 
		556,18.5 556,35.3 549.9,35.3 549.9,19.9 549.8,19.4 549.8,19 549.8,18.6 549.7,18.2 549.6,17.9 549.5,17.5 549.4,17.2 549.2,17 
		549,16.7 548.8,16.5 548.6,16.3 548.3,16.2 548,16.1 547.7,16 547.3,15.9 546.9,15.9 546.3,16 545.7,16.1 545.2,16.3 544.6,16.5 
		544.2,16.8 543.7,17.2 543.3,17.7 542.9,18.2 542.5,18.8 542.2,19.4 542,20 541.7,20.7 541.5,21.4 541.4,22.2 541.3,22.9 
		541.3,23.7 541.3,35.3 535.1,35.3 535.1,4.8 534.8,4.8 534.6,4.7 534.4,4.7 534.1,4.6 533.8,4.6 533.6,4.6 533.3,4.6 533.1,4.5 
		532.8,4.5 532.5,4.5 532.2,4.5 531.9,4.4 531.7,4.4 531.4,4.4 531.1,4.3 530.9,4.3 	"/>
	<path style="fill-rule:evenodd;clip-rule:evenodd;" d="M582.2,24.3h-14.9v0.8l0.1,0.7l0.1,0.7l0.2,0.7l0.3,0.6l0.3,0.5l0.3,0.5
		l0.4,0.5l0.5,0.3l0.5,0.4l0.6,0.3l0.6,0.3l0.6,0.2l0.7,0.1l0.8,0.1l0.8,0.1l0.4-0.1h0.4l0.5,0l0.4,0l0.5-0.1l0.5-0.1l0.4-0.1
		l0.5-0.1l0.4-0.1l0.4-0.1l0.5-0.1l0.4-0.1l0.4-0.2l0.5-0.1l0.4-0.2l0.5-0.1l0.6,4.7l-0.5,0.1l-0.5,0.2l-0.5,0.2l-0.5,0.1L579,35
		l-0.6,0.2l-0.5,0.1l-0.5,0.1l-0.6,0.1l-0.5,0.1l-0.5,0.1l-0.5,0.1l-0.6,0l-0.5,0h-0.6l-0.5,0.1l-1.4-0.1l-1.3-0.1l-1.2-0.2
		l-1.1-0.3l-1.1-0.4l-1-0.5l-0.9-0.6l-0.8-0.7l-0.7-0.8l-0.7-0.9l-0.5-1l-0.4-1.1l-0.3-1.2l-0.3-1.3l-0.1-1.4l-0.1-1.5l0.1-1.4
		l0.1-1.3l0.2-1.2l0.4-1.2l0.4-1.1l0.5-1l0.6-1l0.7-0.9l0.8-0.8l0.8-0.7l0.9-0.6l1-0.5l1.1-0.4l1.2-0.3l1.2-0.2l1.3,0l1.2,0l1.2,0.1
		l1.1,0.3l1,0.3l1,0.4l0.8,0.6l0.8,0.6l0.7,0.7l0.5,0.7l0.5,0.8l0.4,0.9l0.3,0.9l0.3,1l0.2,1l0.1,1l0.1,1.1l-0.1,0.1v0.2v0.1v0.2
		v0.1v0.2v0.1v0.2l0,0.2v0.2l-0.1,0.2v0.2l0,0.2v0.2l0,0.2V24.3L582.2,24.3z M572.1,15.3h-0.5l-0.4,0.1l-0.4,0.1l-0.4,0.1l-0.4,0.2
		l-0.3,0.3l-0.4,0.3l-0.3,0.3l-0.3,0.3l-0.2,0.4l-0.2,0.4l-0.3,0.4l-0.1,0.5l-0.2,0.5l-0.1,0.5l0,0.5h8.8v-0.6l0-0.5l-0.1-0.5
		l-0.1-0.5l-0.2-0.4l-0.2-0.4l-0.3-0.4l-0.2-0.3l-0.3-0.3l-0.3-0.3l-0.3-0.2l-0.4-0.2l-0.4-0.2l-0.4-0.1l-0.4-0.1H572.1L572.1,15.3z
		"/>
	<path style="fill-rule:evenodd;clip-rule:evenodd;" d="M596.2,35.3h-6.2V16l-0.2,0l-0.2-0.1l-0.3,0l-0.2,0l-0.3-0.1l-0.2,0l-0.3,0
		l-0.3-0.1l-0.3,0h-0.3l-0.3-0.1l-0.3,0l-0.3,0h-0.3l-0.3-0.1h-0.2v-3.8l0.5-0.1l0.6-0.1l0.6,0l0.6-0.1l0.6,0l0.6,0l0.7-0.1l0.7,0
		l0.7,0h0.7l0.7-0.1h0.7h0.7h0.7h0.7l0.7,0.1V35.3L596.2,35.3z M593.1,8.2l-0.4-0.1l-0.4,0L592,8.1l-0.3-0.1l-0.4-0.2L591,7.6
		l-0.3-0.2l-0.3-0.3l-0.3-0.2l-0.2-0.3l-0.2-0.3L589.6,6l-0.1-0.4l-0.1-0.3l-0.1-0.4V4.5V4.1l0.1-0.4l0.1-0.4l0.1-0.3l0.2-0.3
		l0.2-0.3l0.2-0.3l0.3-0.3l0.3-0.2l0.3-0.3l0.3-0.2l0.4-0.2l0.3-0.1l0.3-0.1l0.4-0.1h0.4h0.4l0.3,0.1l0.4,0.1l0.3,0.1l0.3,0.2
		l0.4,0.2l0.3,0.2l0.3,0.3l0.3,0.2l0.2,0.3l0.2,0.3l0.2,0.3l0.1,0.3l0.1,0.4l0.1,0.4l0,0.4l0,0.3l-0.1,0.4l-0.1,0.3L596.7,6
		l-0.2,0.3l-0.2,0.3l-0.2,0.3l-0.3,0.2l-0.3,0.3l-0.3,0.2l-0.4,0.2l-0.3,0.2l-0.3,0.1l-0.4,0.1l-0.3,0L593.1,8.2L593.1,8.2z"/>
	<polygon style="fill-rule:evenodd;clip-rule:evenodd;" points="633.4,35.3 633.4,20.1 633.3,19.6 633.3,19.2 633.3,18.7 
		633.2,18.3 633.1,17.9 633.1,17.6 632.9,17.3 632.8,17 632.6,16.8 632.4,16.6 632.2,16.4 631.9,16.2 631.6,16.1 631.2,16 
		630.9,15.9 630.5,15.9 630,15.9 629.5,16 629,16.2 628.5,16.5 628,16.8 627.6,17.2 627.1,17.6 626.7,18.1 626.3,18.7 626,19.2 
		625.7,19.9 625.4,20.6 625.2,21.3 625.1,22.1 625,22.9 625,23.8 625,35.3 618.9,35.3 618.9,20.1 618.8,19.6 618.8,19.2 618.8,18.8 
		618.8,18.4 618.7,18.1 618.6,17.7 618.5,17.4 618.3,17.1 618.2,16.8 618,16.6 617.7,16.4 617.5,16.2 617.2,16.1 616.8,16 
		616.4,15.9 616,15.9 615.5,16 614.9,16 614.4,16.2 614,16.5 613.4,16.8 613,17.2 612.6,17.7 612.2,18.2 611.8,18.7 611.5,19.3 
		611.2,20 611,20.7 610.8,21.4 610.6,22.1 610.5,23 610.5,23.8 610.5,35.3 604.3,35.3 604.3,16 604.1,16 603.9,16 603.6,15.9 
		603.4,15.9 603.1,15.8 602.9,15.8 602.6,15.8 602.3,15.7 602.1,15.7 601.8,15.7 601.5,15.6 601.2,15.6 600.9,15.6 600.6,15.6 
		600.4,15.5 600.1,15.5 600.1,11.7 600.7,11.6 601.3,11.5 601.9,11.5 602.5,11.5 603.1,11.4 603.8,11.4 604.4,11.3 605.1,11.3 
		605.7,11.3 606.4,11.3 607,11.2 607.7,11.2 608.3,11.2 609,11.2 609.6,11.2 610.2,11.3 610.2,11.5 610.2,11.7 610.2,12 610.2,12.2 
		610.2,12.5 610.1,12.8 610.1,13.1 610.1,13.3 610.1,13.6 610,13.9 610,14.2 610,14.5 610,14.8 609.9,15.1 609.9,15.3 609.9,15.6 
		609.9,15.6 610.2,15.1 610.5,14.5 610.9,14.1 611.3,13.6 611.7,13.2 612.1,12.8 612.6,12.4 613.1,12.1 613.6,11.8 614.2,11.5 
		614.7,11.3 615.3,11.1 615.9,11 616.5,10.9 617.2,10.8 617.9,10.8 618.6,10.8 619.3,10.9 620,11 620.6,11.2 621.2,11.4 621.7,11.7 
		622.1,12 622.5,12.3 622.9,12.7 623.3,13.1 623.5,13.4 623.8,13.9 624,14.3 624.2,14.7 624.4,15.2 624.5,15.6 624.7,15.2 625,14.7 
		625.2,14.3 625.6,13.8 625.9,13.4 626.4,13 626.8,12.7 627.3,12.3 627.8,12 628.3,11.7 628.9,11.4 629.5,11.2 630.2,11 630.9,10.9 
		631.6,10.8 632.4,10.8 633.2,10.8 634,10.9 634.7,11.1 635.4,11.3 636.1,11.5 636.7,11.9 637.2,12.3 637.7,12.8 638.1,13.2 
		638.5,13.9 638.8,14.5 639.1,15.2 639.3,16 639.4,16.9 639.6,17.7 639.6,18.8 639.6,35.3 633.4,35.3 	"/>
</g>
</svg>
